<?xml version="1.0" encoding="UTF-8"?>
<svg id="logo" xmlns="http://www.w3.org/2000/svg" viewBox="0 0 196 51.8368">
  <g>
    <g>
      <g>
        <polygon points="0 22.1001 26.5058 22.1001 25.0581 24.0704 0 24.0704 0 22.1001 0 22.1001" fill="#d40511"/>
        <polygon points="0 18.4445 29.1986 18.4445 27.7483 20.4121 0 20.4121 0 18.4445 0 18.4445" fill="#d40511"/>
        <polygon points="0 25.7585 23.8146 25.7585 22.3733 27.7153 0 27.7153 0 25.7585 0 25.7585" fill="#d40511"/>
      </g>
      <g>
        <polygon points="196 24.0704 169.5976 24.0704 171.0446 22.1015 196 22.1015 196 24.0704 196 24.0704" fill="#d40511"/>
        <polygon points="196 27.7153 166.9128 27.718 168.3537 25.7585 196 25.7585 196 27.7153 196 27.7153" fill="#d40511"/>
        <polygon points="173.7354 18.4445 196 18.4445 196 20.4134 172.287 20.4148 173.7354 18.4445 173.7354 18.4445" fill="#d40511"/>
      </g>
    </g>
    <g>
      <path d="m25.6726,27.7153l12.578-17.0886h15.6082c1.7252,0,1.7026.655.8595,1.7975-.8562,1.16-2.3134,3.1547-3.1854,4.3322-.4426.5982-1.2431,1.6881,1.4089,1.6881h20.9101c-1.739,2.3822-7.3796,9.2708-17.5083,9.2708h-30.671Z" fill="#d40511"/>
      <path d="m97.7056,18.4431l-6.8202,9.2722h-17.9924s6.8172-9.2708,6.8233-9.2708l17.9893-.0014h0Z" fill="#d40511"/>
      <path d="m123.7239,18.4445l-6.8239,9.2708h-17.9856s6.8178-9.2708,6.8239-9.2708h17.9856Z" fill="#d40511"/>
      <path d="m129.5749,18.4445c.0006,0-1.314,1.7974-1.9528,2.6604-2.2593,3.0534-.2626,6.6105,7.1109,6.6105h28.8853l6.8226-9.2708h-40.8661Z" fill="#d40511"/>
    </g>
    <g>
      <path d="m34.4685,0l-6.2621,8.5079h34.1288c1.7249,0,1.7023.655.8593,1.7974-.8562,1.1587-2.2894,3.1763-3.1614,4.3539-.4427.5969-1.2431,1.6867,1.4089,1.6867h13.9564s2.2495-3.0614,4.1352-5.6206c2.5655-3.4814.2225-10.7253-8.9486-10.7253h-36.1165Z" fill="#d40511"/>
      <polygon points="125.2688 16.3458 81.2619 16.3458 93.2956 0 111.2819 0 104.3858 9.3721 112.4136 9.3721 119.3153 0 137.2989 0 125.2688 16.3458 125.2688 16.3458" fill="#d40511"/>
      <path d="m162.2084,0l-12.0314,16.3458h-19.0593S143.1532,0,143.1592,0h19.0492Z" fill="#d40511"/>
    </g>
  </g>
  <g>
    <path d="m45.5383,48.3944c-.971,0-1.863-.1411-2.676-.4227-.813-.2822-1.547-.6658-2.2026-1.1506l1.3768-2.1054c1.075.7745,2.2492,1.1607,3.5214,1.1607.6685,0,1.2161-.1114,1.6422-.3342s.6395-.5767.6395-1.0622c0-.6948-.5179-1.1736-1.5537-1.4362l-1.653-.4328c-1.1148-.3012-1.9568-.7603-2.5274-1.3768s-.8555-1.4295-.8555-2.4396c0-1.2451.449-2.2195,1.3471-2.9211s2.1277-1.052,3.6888-1.052c.8522,0,1.6489.1175,2.3897.3538s1.4389.5834,2.0953,1.0426l-1.3376,2.1243c-.9312-.6685-1.9609-1.0027-3.0885-1.0027-.5638,0-1.0561.1013-1.4754.3045-.42.2039-.6293.5476-.6293,1.0331,0,.3538.1276.6361.3835.8454.2559.21.6395.3808,1.1506.5118l1.6523.4328c1.0885.2883,1.9312.7509,2.5281,1.3869.5962.6361.8947,1.4585.8947,2.4687,0,1.2985-.4686,2.3012-1.4065,3.0095-.9372.7083-2.2391,1.0622-3.9042,1.0622Z" fill="#d40511"/>
    <path d="m55.9248,48.2965c-.9838,0-1.7381-.3477-2.262-1.0426-.5247-.6955-.7873-1.6786-.7873-2.9508v-6.2358h2.8522v6.0582c0,.5382.1148.9642.3444,1.2789s.5935.472,1.0919.472c.3673,0,.6887-.0885.9642-.2654s.4983-.4031.6685-.6786v-6.8652h2.8522v10.032h-2.6949v-1.7509c-.3018.5773-.7049,1.0459-1.2094,1.4065-.5051.3606-1.1114.5415-1.8198.5415Z" fill="#d40511"/>
    <path d="m64.2458,51.8368v-13.7695h2.6949v1.7306c.2755-.603.6719-1.075,1.1898-1.416s1.1114-.5118,1.7806-.5118c1.1276,0,2.0095.4301,2.6456,1.2884.6361.8596.9541,2.0365.9541,3.5315v.7867c0,1.495-.318,2.6726-.9541,3.5308-.6361.8596-1.5179,1.289-2.6456,1.289-1.2985,0-2.2364-.6037-2.813-1.8103v5.3506h-2.8522Zm4.5828-11.5668c-.7212,0-1.2978.3086-1.7306.9251v3.7962c.4328.6037,1.0095.9048,1.7306.9048.5902,0,1.0426-.2127,1.3579-.6388.3147-.4261.472-1.0392.472-1.8394v-.6692c0-.7995-.1573-1.4126-.472-1.8394-.3153-.4261-.7677-.6395-1.3579-.6395Z" fill="#d40511"/>
    <path d="m75.6749,51.8368v-13.7695h2.6949v1.7306c.2755-.603.6719-1.075,1.1898-1.416s1.1114-.5118,1.7806-.5118c1.1276,0,2.0095.4301,2.6456,1.2884.6361.8596.9541,2.0365.9541,3.5315v.7867c0,1.495-.318,2.6726-.9541,3.5308-.6361.8596-1.5179,1.289-2.6456,1.289-1.2985,0-2.2364-.6037-2.813-1.8103v5.3506h-2.8522Zm4.5828-11.5668c-.7212,0-1.2978.3086-1.7306.9251v3.7962c.4328.6037,1.0095.9048,1.7306.9048.5902,0,1.0426-.2127,1.3579-.6388.3147-.4261.472-1.0392.472-1.8394v-.6692c0-.7995-.1573-1.4126-.472-1.8394-.3153-.4261-.7677-.6395-1.3579-.6395Z" fill="#d40511"/>
    <path d="m90.0939,48.2965c-1.1803,0-1.9839-.266-2.4099-.7968-.4261-.5314-.6395-1.3019-.6395-2.3113v-10.8592h2.8522v10.7214c0,.341.0756.58.2262.7178s.3707.2066.659.2066c.1182,0,.2431-.0128.3741-.0392v2.3012c-.3147.0392-.6692.0594-1.0622.0594Z" fill="#d40511"/>
    <path d="m94.402,51.8368l1.1999-3.7374h-.9838l-3.0291-10.032h3.1081l1.8292,7.6126h.3342l1.9676-7.6126h3.0089l-4.4647,13.7695h-2.9704Z" fill="#d40511"/>
    <path d="m112.1844,48.3944c-1.2067,0-2.2458-.2525-3.1183-.7569-.8717-.5051-1.5476-1.2229-2.0257-2.154-.4787-.9312-.7185-2.0331-.7185-3.3053v-1.1405c0-1.2721.2397-2.3735.7185-3.3053.4781-.9312,1.154-1.6489,2.0257-2.154.8724-.5044,1.9116-.7569,3.1183-.7569,1.8225,0,3.331.6624,4.5241,1.9866l-1.7306,1.8691c-.7873-.8657-1.6719-1.2985-2.6557-1.2985-.9575,0-1.6955.3248-2.2134.9737s-.7765,1.5834-.7765,2.8029v.9048c0,1.2073.2552,2.1378.7671,2.7935.5112.6563,1.2458.9838,2.2033.9838.4983,0,.9798-.0986,1.4457-.2951.4652-.1965.9149-.5247,1.3478-.9838l1.7306,1.8691c-.5773.6557-1.2586,1.1479-2.046,1.4754-.7867.3275-1.6523.4916-2.5963.4916Z" fill="#d40511"/>
    <path d="m118.6167,48.0993v-13.7701h2.8522v5.331c.3147-.5503.7144-.9865,1.1999-1.3079.4848-.3214,1.0689-.4821,1.7509-.4821.9967,0,1.7603.3444,2.2918,1.0331.5307.6881.7968,1.6753.7968,2.9602v6.2358h-2.8522v-6.0589c0-.5375-.1182-.9669-.3545-1.2884-.2357-.3214-.6097-.4821-1.1209-.4821-.3937,0-.7313.0918-1.0135.2755s-.5145.4132-.6982.6887v6.8652h-2.8522Z" fill="#d40511"/>
    <path d="m132.0722,48.2965c-.8792,0-1.5902-.2721-2.1344-.8164s-.8164-1.2559-.8164-2.1344c0-.9838.3734-1.7637,1.1209-2.3411.7482-.5773,1.7576-.8657,3.0298-.8657h1.574v-.1377c0-1.2586-.6104-1.8886-1.8299-1.8886-.7867,0-1.5078.2694-2.1635.8069l-1.3181-1.7705c.9703-.8785,2.2161-1.3181,3.7374-1.3181,2.8455,0,4.2689,1.3836,4.2689,4.1507v3.1277c0,.5773.2424.8657.7279.8657h.108c.0459,0,.1209-.0068.2262-.0196v2.262c-.1837.0263-.3673.0459-.551.0587-.1837.0135-.3673.0203-.551.0203-.7212,0-1.2755-.135-1.6618-.4038-.3869-.2681-.6395-.6914-.7576-1.2688-.7212,1.1148-1.7246,1.6726-3.0095,1.6726Zm1.1412-2.1054c.6422,0,1.1864-.2816,1.6327-.8454v-1.4362h-1.1803c-1.1412,0-1.7117.4004-1.7117,1.1999,0,.341.1114.607.3342.7968.2228.1904.5314.285.9251.285Z" fill="#d40511"/>
    <path d="m141.6511,37.0045c-.472,0-.8717-.1377-1.1999-.4126-.3275-.2755-.4916-.6496-.4916-1.1216s.1641-.8461.4916-1.1216c.3282-.2748.7279-.4126,1.1999-.4126.4727,0,.8724.1377,1.2006.4126.3275.2755.4916.6496.4916,1.1216s-.1641.8461-.4916,1.1216c-.3282.2748-.7279.4126-1.2006.4126Zm-1.4356,11.0948v-10.032h2.8522v10.032h-2.8522Z" fill="#d40511"/>
    <path d="m145.6647,48.0993v-10.032h2.6949v1.7502c.3018-.5767.6982-1.0453,1.1898-1.4065.4922-.3606,1.1047-.5409,1.8394-.5409.9967,0,1.7739.3376,2.3316,1.0135.5571.6752.8359,1.6158.8359,2.8225v6.3932h-2.8522v-6.0589c0-.5375-.1182-.9669-.3545-1.2884-.2357-.3214-.6097-.4821-1.1209-.4821-.3937,0-.7313.0918-1.0135.2755s-.5145.4132-.6982.6887v6.8652h-2.8522Z" fill="#d40511"/>
  </g>
</svg>